<svg fill="none" height="171" viewBox="0 0 170 171" width="170" xmlns="http://www.w3.org/2000/svg" xmlns:xlink="http://www.w3.org/1999/xlink"><linearGradient id="a" gradientUnits="userSpaceOnUse" x1="60.7651" x2="60.7651" y1="16.9551" y2="125.115"><stop offset="0" stop-color="#00b5f8"/><stop offset="1" stop-color="#d9efff"/></linearGradient><linearGradient id="b" gradientUnits="userSpaceOnUse" x1="132.321" x2="110.08" y1="154.242" y2="130.368"><stop offset="0" stop-color="#9de5ff" stop-opacity=".75"/><stop offset="1" stop-color="#50c1ea"/></linearGradient><path clip-rule="evenodd" d="m51.3538 17.337-24.4707-.3815c-2.4785-.0393-3.9913 2.6193-3.3677 4.9354h34.5989l-2.1502-2.3896c-1.2235-1.3597-2.8784-2.1374-4.6103-2.1643zm-16.7896 17.701-5.7985-6.5741h35.2633l5.9156 6.5741zm5.7976 6.5731 5.7948 6.5698h35.6145l-5.9118-6.5698zm17.5568 19.717-5.9156-6.5741h35.6828l5.9156 6.5741zm5.9147 6.573 2.8203 3.1342-3.0934 3.4378h34.1871c.3073-1.1087.4404-2.2646.3988-3.4146.0425-1.0607-.0636-2.1271-.3181-3.1574zm-12.1034 19.7192 5.9156-6.5741h35.6828l-5.9156 6.5741zm-5.8411 6.573-5.7985 6.5737h35.492l5.9157-6.5737zm-17.3946 19.7217 5.7986-6.575h35.3748l-5.9156 6.575zm-5.0485 6.573c-.418 2.237 1.0688 4.664 3.4379 4.627l24.4707-.382c1.7319-.027 3.3868-.804 4.6103-2.164l1.8727-2.081z" fill="url(#a)" fill-rule="evenodd"/><path d="m99.8301 141.422 9.9989 9.999c1.815 1.815 4.279 2.837 6.845 2.837h20.256c3.447 0 5.175-4.164 2.745-6.606l-22.987-23.086z" fill="url(#b)"/><g fill="#a9e8ff"><path d="m99.5041 141.255 5.2519 5.1s-6.2128-3.519 8.566-18.301c9.299-9.299 21.247-21.072 27.968-27.689 2.212-2.1783 1.087-5.942-1.956-6.552l-18.913-3.7903c-1.27-.2542-2.582.1428-3.5 1.0577l-27.6697 27.6676c-3.345 3.345-3.3813 8.762-.0799 12.15 4.9401 5.074 8.9119 9.084 10.3327 10.357z"/><path d="m142.652 45.0591-27.465.3848c-1.943.0266-3.8.8108-5.174 2.1856l-44.3423 44.3418c-3.9477 3.9477-4.0203 10.3277-.1597 14.3627 2.8681 2.999 6.3826 6.666 10.0592 10.49 1.4256 1.484 3.7903 1.508 5.245.053l36.4148-36.4147 28.244-28.8149c2.423-2.4712.636-6.6392-2.822-6.5883z"/></g></svg>